<svg height="209" viewBox="0 0 443 209" width="443" xmlns="http://www.w3.org/2000/svg" xmlns:xlink="http://www.w3.org/1999/xlink"><filter id="a" filterUnits="userSpaceOnUse" height="151" width="385" x="0" y="0"><feOffset dy="4"/><feGaussianBlur result="blur" stdDeviation="11"/><feFlood flood-color="#e5e5e8"/><feComposite in2="blur" operator="in"/><feComposite in="SourceGraphic"/></filter><filter id="b" filterUnits="userSpaceOnUse" height="151" width="385" x="58" y="58"><feOffset dy="4"/><feGaussianBlur result="blur-2" stdDeviation="11"/><feFlood flood-color="#e5e5e8"/><feComposite in2="blur-2" operator="in"/><feComposite in="SourceGraphic"/></filter><g transform="translate(-287 -268)"><g filter="url(#a)" transform="translate(287 268)"><g fill="#fff" stroke="#ebebeb" stroke-width="3" transform="translate(33 29)"><rect height="85" rx="20" stroke="none" width="319"/><rect fill="none" height="82" rx="18.5" width="316" x="1.5" y="1.5"/></g></g><g fill="none" stroke="#faa486" stroke-width="4"><circle cx="363.5" cy="339.5" r="23.5" stroke="none"/><circle cx="363.5" cy="339.5" fill="none" r="21.5"/></g><circle cx="363.5" cy="339.5" fill="#e8e8e8" r="14.5"/><path d="m407.5 327.5h198" fill="none" stroke="#e8e8e8" stroke-linecap="round" stroke-width="12"/><path d="m407.5 352.5h125" fill="none" stroke="#e8e8e8" stroke-linecap="round" stroke-width="12"/><g filter="url(#b)" transform="translate(287 268)"><g fill="#fff" stroke="#ebebeb" stroke-width="3" transform="translate(91 87)"><rect height="85" rx="20" stroke="none" width="319"/><rect fill="none" height="82" rx="18.5" width="316" x="1.5" y="1.5"/></g></g><g fill="none" stroke="#7da1f9" stroke-width="4"><circle cx="421.5" cy="397.5" r="23.5" stroke="none"/><circle cx="421.5" cy="397.5" fill="none" r="21.5"/></g><circle cx="421.5" cy="397.5" fill="#e8e8e8" r="14.5"/><g fill="none" stroke="#e8e8e8" stroke-linecap="round" stroke-width="12"><path d="m465.5 385.5h198"/><path d="m465.5 410.5h125"/></g></g></svg>